<svg 
 xmlns="http://www.w3.org/2000/svg"
 xmlns:xlink="http://www.w3.org/1999/xlink"
 width="25px" height="25px">
<path fill-rule="evenodd"  fill="rgb(255, 255, 255)"
 d="M24.535,23.227 L23.317,24.441 L17.471,18.608 C15.671,20.127 13.347,21.48 10.804,21.48 C5.99,21.48 0.474,16.434 0.474,10.740 C0.474,5.46 5.99,0.431 10.804,0.431 C16.510,0.431 21.135,5.46 21.135,10.740 C21.135,13.276 20.212,15.596 18.689,17.393 L24.535,23.227 ZM19.413,10.740 C19.413,5.996 15.559,2.149 10.804,2.149 C6.50,2.149 2.196,5.996 2.196,10.740 C2.196,15.483 6.50,19.330 10.804,19.330 C15.559,19.330 19.413,15.483 19.413,10.740 Z"/>
</svg>